<svg width="100" height="100" viewBox="0 0 100 100" fill="none" xmlns="http://www.w3.org/2000/svg">
<g id="&#237;&#143;&#176;&#237;&#138;&#184; 1" clip-path="url(#clip0_1220_7563)">
<g id="Clip path group">
<mask id="mask0_1220_7563" style="mask-type:luminance" maskUnits="userSpaceOnUse" x="0" y="0" width="100" height="100">
<g id="clippath">
<path id="Vector" d="M100 0H0V100H100V0Z" fill="white"/>
</g>
</mask>
<g mask="url(#mask0_1220_7563)">
<g id="Group">
<g id="Group_2">
<path id="Vector_2" d="M9.19988 41.1707H13.1199C13.9899 41.1707 14.6899 40.4707 14.6899 39.6007V32.3407C14.6899 28.4407 17.8499 25.2807 21.7499 25.2807C25.6499 25.2807 28.8099 28.4407 28.8099 32.3407V39.6007C28.8099 40.4707 29.5099 41.1707 30.3799 41.1707H34.2999C35.1699 41.1707 35.8699 40.4707 35.8699 39.6007V32.3407C35.8699 24.5407 29.5499 18.2207 21.7499 18.2207C13.9499 18.2207 7.62988 24.5407 7.62988 32.3407V39.6007C7.62988 40.4707 8.32988 41.1707 9.19988 41.1707Z" fill="#111111"/>
<path id="Vector_3" d="M16.4601 57.2609C16.4601 58.1309 17.1601 58.8309 18.0301 58.8309H21.9501C22.8201 58.8309 23.5201 58.1309 23.5201 57.2609V51.7709H36.0701C36.9401 51.7709 37.6401 51.0709 37.6401 50.2009V46.2809C37.6401 45.4109 36.9401 44.7109 36.0701 44.7109H7.44012C6.57012 44.7109 5.87012 45.4109 5.87012 46.2809V50.2009C5.87012 51.0709 6.57012 51.7709 7.44012 51.7709H16.4601V57.2609Z" fill="#111111"/>
<path id="Vector_4" d="M46.6599 18.2207H42.7399C41.8728 18.2207 41.1699 18.9236 41.1699 19.7907V57.2507C41.1699 58.1178 41.8728 58.8207 42.7399 58.8207H46.6599C47.527 58.8207 48.2299 58.1178 48.2299 57.2507V19.7907C48.2299 18.9236 47.527 18.2207 46.6599 18.2207Z" fill="#111111"/>
<path id="Vector_5" d="M46.6702 60.5898H12.7302C11.8602 60.5898 11.1602 61.2898 11.1602 62.1598V80.2098C11.1602 81.0798 11.8602 81.7798 12.7302 81.7798H46.6602C47.5302 81.7798 48.2302 81.0798 48.2302 80.2098V62.1598C48.2302 61.2898 47.5302 60.5898 46.6602 60.5898H46.6702ZM41.1702 74.7098H18.2202V67.6498H41.1702V74.7098Z" fill="#111111"/>
<path id="Vector_6" d="M92.56 72.9505H85.3V57.0605H78.24V72.9505H69.41V57.0605H62.35V72.9505H55.09C54.22 72.9505 53.52 73.6505 53.52 74.5205V78.4405C53.52 79.3105 54.22 80.0105 55.09 80.0105H92.55C93.42 80.0105 94.12 79.3105 94.12 78.4405V74.5205C94.12 73.6505 93.42 72.9505 92.55 72.9505H92.56Z" fill="#111111"/>
<path id="Vector_7" d="M56.8703 57.0603H90.8003C91.6703 57.0603 92.3703 56.3603 92.3703 55.4903V51.5703C92.3703 50.7003 91.6703 50.0003 90.8003 50.0003H85.3103V30.3903C85.3103 29.5203 84.6103 28.8203 83.7403 28.8203H79.8203C78.9503 28.8203 78.2503 29.5203 78.2503 30.3903V50.0003H69.4203V30.3903C69.4203 29.5203 68.7203 28.8203 67.8503 28.8203H63.9303C63.0603 28.8203 62.3603 29.5203 62.3603 30.3903V50.0003H56.8703C56.0003 50.0003 55.3003 50.7003 55.3003 51.5703V55.4903C55.3003 56.3603 56.0003 57.0603 56.8703 57.0603Z" fill="#111111"/>
<path id="Vector_8" d="M90.8003 18.2207H56.8703C56.0032 18.2207 55.3003 18.9236 55.3003 19.7907V23.7107C55.3003 24.5778 56.0032 25.2807 56.8703 25.2807H90.8003C91.6674 25.2807 92.3703 24.5778 92.3703 23.7107V19.7907C92.3703 18.9236 91.6674 18.2207 90.8003 18.2207Z" fill="#111111"/>
</g>
</g>
</g>
</g>
</g>
<defs>
<clipPath id="clip0_1220_7563">
<rect width="100" height="100" fill="white"/>
</clipPath>
</defs>
</svg>
