<svg width="44" height="44" viewBox="0 0 44 44" fill="none" xmlns="http://www.w3.org/2000/svg">
<path d="M3.65539 11.6366C3.68052 11.4492 3.82758 11.3145 4.09656 11.2323C4.36555 11.1502 4.49495 11.2005 4.48477 11.3834C4.47767 11.6306 4.46678 11.8381 4.45209 12.006C4.43739 12.1738 4.4265 12.3814 4.4194 12.6286C4.60466 12.5394 4.81458 12.4507 5.04917 12.3628C5.2942 12.2553 5.53401 12.1575 5.7686 12.0696C6.04802 11.9679 6.20364 12.0511 6.23545 12.3191C6.27769 12.5676 6.19421 12.7238 5.98499 12.7877C5.83556 12.8333 5.59349 12.9236 5.2588 13.0584C4.93906 13.1887 4.66639 13.3129 4.44082 13.4308C4.45677 14.0794 4.4854 14.7159 4.52673 15.3405C4.583 15.9604 4.65125 16.5931 4.73148 17.2384C4.76162 17.3926 4.81405 17.4583 4.88877 17.4354C4.97843 17.4081 5.0458 17.4692 5.09089 17.6188C5.13146 17.7534 5.10099 17.8689 4.99947 17.9653C4.91741 18.072 4.80165 18.1482 4.65222 18.1938C4.50278 18.2395 4.35025 18.2207 4.19464 18.1375C4.05396 18.0498 3.97152 17.9116 3.94731 17.7229C3.87159 17.0926 3.8063 16.4427 3.75145 15.7733C3.71154 15.0993 3.67911 14.423 3.65414 13.7445C3.50921 13.8051 3.33891 13.8898 3.14322 13.9985C2.94753 14.1073 2.75931 14.2138 2.57857 14.318C2.29773 14.4691 2.1242 14.4077 2.058 14.1339C2.00223 13.8405 2.08939 13.6424 2.31947 13.5394C2.53461 13.4411 2.7647 13.3381 3.00972 13.2306C3.25024 13.1082 3.44818 13.0069 3.60355 12.9268C3.60472 12.714 3.60589 12.5013 3.60705 12.2885C3.62317 12.0712 3.63928 11.8539 3.65539 11.6366ZM9.72925 10.7376C10.0281 10.6463 10.3212 10.6711 10.6085 10.8121C10.8957 10.9531 11.0957 11.2106 11.2084 11.5847C11.6187 12.9461 11.601 14.0787 11.1554 14.9827C10.7247 15.882 10.1656 16.4367 9.47819 16.6466C9.08965 16.7652 8.70241 16.7528 8.31646 16.6093C7.93051 16.4657 7.65188 16.1097 7.48056 15.5412C7.19655 14.5987 7.25114 13.6426 7.64435 12.673C8.03305 11.6885 8.72802 11.0433 9.72925 10.7376ZM9.80439 11.4743C9.56529 11.5473 9.31434 11.6893 9.05153 11.9002C8.78421 12.0962 8.6124 12.6633 8.5361 13.6015C8.53777 13.7154 8.49448 13.7612 8.40624 13.7392C8.33294 13.7126 8.27896 13.6147 8.24432 13.4455C8.12218 13.7442 8.06362 14.0644 8.06863 14.4059C8.08407 14.7279 8.14139 15.0535 8.24057 15.3826C8.3127 15.622 8.45124 15.7839 8.6562 15.8684C8.8761 15.9483 9.05329 15.9677 9.18779 15.9266C9.75565 15.7532 10.1908 15.3017 10.4931 14.5722C10.806 13.8232 10.8068 12.9326 10.4958 11.9003C10.4552 11.7657 10.3571 11.6568 10.2015 11.5736C10.0563 11.4709 9.92394 11.4378 9.80439 11.4743ZM13.3391 10.2723C13.3655 10.9014 13.3933 11.4811 13.4226 12.0113C13.4518 12.5415 13.4923 13.1091 13.544 13.7141C13.5761 14.1454 13.6997 14.3119 13.9148 14.2135C14.13 14.1151 14.3307 13.915 14.5172 13.613C14.8155 13.1951 15.0808 12.6403 15.313 11.9486C15.5452 11.2569 15.6433 10.4183 15.6074 9.43265C15.5922 9.27392 15.7302 9.10923 16.0215 8.9386C16.3277 8.7634 16.4811 8.8391 16.4816 9.16569C16.4783 9.9672 16.5244 10.77 16.6199 11.574C16.7153 12.3781 16.8286 13.1604 16.9599 13.9208C16.9917 14.1888 16.8873 14.3841 16.6468 14.5065C16.4212 14.6244 16.2438 14.4417 16.1144 13.9584C16.0812 13.7398 16.039 13.4913 15.9877 13.2129C15.9469 12.915 15.9196 12.6619 15.9058 12.4538C15.5275 13.4188 15.1847 14.0953 14.8773 14.4832C14.5699 14.8712 14.2145 15.1267 13.811 15.25C13.5869 15.3184 13.3588 15.2655 13.1268 15.0913C12.9052 14.8976 12.777 14.6345 12.7421 14.3021C12.6754 13.7016 12.6235 13.015 12.5864 12.2421C12.5598 11.4497 12.5453 10.7517 12.5428 10.1479C12.5409 9.87078 12.6685 9.72562 12.9256 9.71245C13.1932 9.67975 13.331 9.86638 13.3391 10.2723ZM20.0359 7.54118C20.3348 7.44991 20.5105 7.51876 20.5632 7.74773C20.6159 7.9767 20.4898 8.15407 20.185 8.27982C19.4409 8.57239 18.9513 9.03234 18.716 9.65964C18.4807 10.2869 18.4488 10.8848 18.6201 11.4533C18.7779 11.977 18.9802 12.3236 19.2272 12.4932C19.4891 12.6583 19.7396 12.7044 19.9787 12.6313C20.2775 12.5401 20.5464 12.3763 20.7853 12.14C21.0345 11.8841 21.2337 11.5701 21.3826 11.1979C21.4779 10.9727 21.6326 10.9173 21.8466 11.0317C22.071 11.1265 22.1273 11.3136 22.0156 11.5927C21.819 12.0775 21.5834 12.4599 21.3087 12.7398C21.034 13.0197 20.6053 13.2487 20.0225 13.4267C19.619 13.5499 19.2063 13.4799 18.7843 13.2166C18.3622 12.9534 18.034 12.4328 17.7996 11.6549C17.5697 10.8919 17.6522 10.0825 18.047 9.22677C18.4569 8.36645 19.1198 7.80459 20.0359 7.54118ZM23.3868 3.45468C23.412 4.29651 23.4363 4.99977 23.4596 5.56446C23.4829 6.12915 23.5071 6.83241 23.5323 7.67424C23.7723 7.22519 24.0222 6.86299 24.2819 6.58763C24.5371 6.29732 24.8665 6.09055 25.27 5.96734C25.524 5.88976 25.7678 5.91335 26.0012 6.03812C26.2346 6.16288 26.3793 6.4536 26.4353 6.91027C26.5066 7.52568 26.595 8.144 26.7006 8.76523C26.8211 9.38191 26.9693 9.98197 27.1451 10.5654C27.2533 10.9245 27.1535 11.1347 26.8456 11.196C26.5422 11.2723 26.3642 11.196 26.3115 10.967C26.1566 10.3445 26.024 9.71518 25.9139 9.07898C25.7993 8.42782 25.7041 7.78706 25.6284 7.1567C25.6132 6.99797 25.5592 6.90009 25.4665 6.86306C25.3737 6.82604 25.2451 6.83262 25.0808 6.88282C24.9762 6.91477 24.7075 7.24185 24.2749 7.86407C23.8378 8.47134 23.6175 9.09408 23.614 9.7323C23.61 10.0439 23.6188 10.4252 23.6404 10.876C23.677 11.3223 23.703 11.7064 23.7184 12.0285C23.7488 12.3459 23.6108 12.5106 23.3043 12.5225C23.0173 12.5448 22.8669 12.4519 22.8531 12.2437C22.8001 10.8222 22.7426 9.38576 22.6805 7.93436C22.6334 6.47839 22.5834 5.03967 22.5304 3.61819C22.5211 3.42497 22.6539 3.27005 22.9288 3.15342C23.2038 3.0368 23.3564 3.13722 23.3868 3.45468ZM27.7727 3.04656C27.7784 2.84878 27.8133 2.66659 27.8773 2.5C27.9413 2.33342 28.063 2.22274 28.2423 2.16798C28.4067 2.11778 28.5234 2.18016 28.5925 2.35513C28.6615 2.53009 28.6925 2.74118 28.6854 2.98841C28.6942 3.88425 28.7039 4.83702 28.7144 5.84671C28.7205 6.84144 28.7526 7.78736 28.8108 8.68448C28.8245 8.89265 28.7216 9.03845 28.5019 9.12186C28.2778 9.19031 28.1543 9.10549 28.1315 8.86739C28.0299 7.93452 27.9514 6.97009 27.8961 5.97409C27.8362 4.96312 27.7951 3.98728 27.7727 3.04656ZM28.5842 10.126C28.6888 10.094 28.7771 10.1161 28.849 10.1922C28.9208 10.2682 28.9883 10.411 29.0514 10.6204C29.1101 10.8149 29.1006 10.973 29.023 11.0947C28.95 11.2314 28.8313 11.3248 28.6669 11.375C28.5772 11.4024 28.4942 11.3706 28.4178 11.2796C28.3459 11.2035 28.2807 11.0682 28.2221 10.8737C28.1725 10.7092 28.1842 10.5585 28.2573 10.4219C28.3258 10.2702 28.4348 10.1716 28.5842 10.126Z" fill="#3D63EB"/>
<path d="M33.4673 31.0149C33.4809 30.9656 33.4914 30.9321 33.4993 30.8978C33.6359 30.3082 33.8462 29.7465 34.1482 29.2186C34.2686 29.0083 34.4062 28.8095 34.5632 28.6243C34.836 28.3022 35.1235 27.9932 35.4315 27.7028C35.8269 27.3299 36.2936 27.0862 36.8229 26.9529C36.9986 26.9088 37.1709 26.8514 37.3475 26.812C37.7724 26.7172 38.201 26.6988 38.6299 26.7828C38.9056 26.8369 39.1806 26.8935 39.4537 26.959C39.9124 27.0692 40.3333 27.2658 40.7205 27.5291C41.4347 28.0146 41.997 28.6346 42.402 29.3904C42.6087 29.7761 42.7452 30.185 42.8037 30.6175C42.8548 30.9963 42.8494 31.3725 42.7367 31.7429C42.5942 32.2117 42.3538 32.6267 42.0217 32.9895C41.7637 33.2715 41.4605 33.4935 41.1017 33.6399C40.9428 33.7046 40.7866 33.7765 40.63 33.8471C40.343 33.9765 40.0407 34.051 39.7299 34.0956C39.4693 34.133 39.2073 34.1583 38.9436 34.1475C38.7897 34.141 38.6362 34.126 38.4823 34.1165C38.3694 34.1095 38.2561 34.1031 38.1431 34.0995C37.8159 34.0889 37.4934 34.0401 37.1724 33.9793C36.7208 33.8937 36.2884 33.7473 35.8652 33.5729C35.5266 33.4335 35.1882 33.2927 34.8499 33.1529C34.809 33.1359 34.767 33.1211 34.7151 33.1016C34.7074 33.1917 34.719 33.2695 34.7321 33.3462C34.8953 34.3073 35.2104 35.2173 35.6804 36.0754C35.9927 36.6455 36.3472 37.1891 36.7491 37.7017C36.9569 37.9666 37.1843 38.2157 37.4233 38.4536C37.8474 38.8755 38.2941 39.2735 38.7574 39.6536C39.0716 39.9113 39.4134 40.1305 39.7639 40.3369C40.278 40.6395 40.8113 40.9053 41.3549 41.1521C41.3793 41.1633 41.4049 41.1722 41.4281 41.1817C41.4591 41.1552 41.4409 41.1315 41.4321 41.1072C41.3245 40.8141 41.2175 40.521 41.1094 40.2281C41.0149 39.9721 40.9507 39.7086 40.9024 39.4406C40.8567 39.1865 40.8057 38.933 40.752 38.6803C40.6632 38.2611 40.9232 37.9808 41.2113 37.891C41.3183 37.8576 41.4267 37.8539 41.5332 37.8832C41.794 37.9546 41.9709 38.1133 42.0302 38.3791C42.0767 38.5877 42.1202 38.7972 42.1548 39.008C42.211 39.3521 42.3015 39.686 42.4247 40.0128C42.6024 40.4844 42.7727 40.9588 42.9476 41.4316C42.9924 41.5529 43.0433 41.672 43.0904 41.7925C43.1131 41.8505 43.1389 41.9082 43.1548 41.9682C43.1798 42.0635 43.2136 42.1539 43.2595 42.2417C43.337 42.3901 43.349 42.5519 43.3152 42.7111C43.2652 42.9473 43.1117 43.1035 42.8843 43.1894C42.7841 43.2274 42.6791 43.2209 42.5749 43.2109C42.53 43.2064 42.4832 43.202 42.4415 43.1861C42.3472 43.1504 42.2553 43.1624 42.1608 43.1808C41.9294 43.226 41.6978 43.2689 41.4662 43.3113C41.3904 43.325 41.314 43.3375 41.2374 43.3439C40.926 43.3704 40.6362 43.4728 40.3501 43.5866C40.1772 43.6552 40.018 43.7455 39.8684 43.8579C39.6819 43.9982 39.4647 44.032 39.236 43.9703C39.0983 43.9332 38.993 43.8515 38.9183 43.7335C38.8073 43.5587 38.7801 43.3662 38.8232 43.1679C38.8633 42.9833 38.9859 42.855 39.1457 42.756C39.5394 42.5123 39.9632 42.3341 40.4051 42.1946C40.4173 42.1907 40.4278 42.1809 40.444 42.1709C40.4281 42.1397 40.3963 42.1338 40.3711 42.121C40.0537 41.9578 39.7324 41.8019 39.4196 41.6313C38.603 41.1853 37.859 40.6401 37.1783 40.0117C36.9867 39.8349 36.7892 39.6634 36.6044 39.4799C35.7628 38.6443 35.0651 37.7042 34.5053 36.665C34.2419 36.1761 34.0193 35.6699 33.838 35.1467C33.6784 34.6868 33.5581 34.2166 33.4707 33.7383C33.4034 33.3694 33.3583 32.9984 33.3384 32.6242C33.3353 32.5664 33.3381 32.5084 33.3381 32.4498C33.3168 32.4342 33.3001 32.4192 33.281 32.4083C32.5794 32.0145 31.9103 31.5702 31.2404 31.1273C30.4227 30.5866 29.6557 29.9805 28.9043 29.355C28.43 28.9601 27.964 28.5565 27.5089 28.1404C26.591 27.3015 25.7261 26.4141 24.9492 25.446C24.4768 24.8576 24.0386 24.2462 23.6506 23.6C23.1725 22.8038 22.8325 21.954 22.6097 21.0577C22.5742 20.9151 22.5407 20.7718 22.5123 20.6276C22.445 20.2865 22.6505 19.9382 23.0309 19.8515C23.2949 19.7912 23.7031 19.9689 23.7817 20.303C23.8376 20.5414 23.8955 20.7796 23.9571 21.0167C24.1496 21.7563 24.4726 22.4399 24.8737 23.0913C25.4036 23.9526 26.0227 24.7474 26.7059 25.4954C27.1243 25.9533 27.5583 26.3965 28.0068 26.8257C28.7902 27.5756 29.614 28.2812 30.4627 28.9592C30.9841 29.3759 31.5254 29.7652 32.0866 30.1286C32.5107 30.4033 32.935 30.6775 33.3597 30.9514C33.3898 30.9706 33.4216 30.9871 33.4681 31.0138L33.4673 31.0149ZM34.6901 31.6793C34.813 31.7359 34.9299 31.7944 35.0503 31.8441C35.4094 31.9927 35.7699 32.138 36.1298 32.2845C36.4145 32.4005 36.7003 32.5129 36.9952 32.6018C37.3867 32.7201 37.7849 32.7987 38.1954 32.8146C38.3992 32.8224 38.6027 32.8344 38.8062 32.8487C39.0787 32.8676 39.3501 32.8637 39.6175 32.8071C39.7631 32.7761 39.9115 32.7455 40.0489 32.6905C40.2712 32.6018 40.486 32.495 40.702 32.3921C40.7625 32.3634 40.8204 32.3255 40.8724 32.2836C41.119 32.0845 41.2993 31.8349 41.4191 31.5462C41.5036 31.3426 41.553 31.1285 41.5235 30.9065C41.4807 30.5866 41.3921 30.2795 41.2374 29.9928C41.0492 29.6442 40.8147 29.3302 40.5295 29.0507C40.2771 28.8033 40.0018 28.5894 39.6876 28.4238C39.5031 28.3267 39.3112 28.2497 39.1057 28.2062C38.9109 28.1647 38.7168 28.1189 38.5226 28.0749C38.4608 28.0609 38.3997 28.0381 38.3373 28.0333C38.0974 28.0149 37.8576 28.0057 37.622 28.0735C37.4134 28.1334 37.2033 28.1887 36.9952 28.2508C36.874 28.2871 36.7599 28.3412 36.6495 28.4037C36.4707 28.5046 36.3177 28.6357 36.1786 28.7838C36.0526 28.918 35.9257 29.0515 35.8014 29.1874C35.7043 29.2931 35.6018 29.3957 35.5175 29.5106C35.3043 29.8004 35.1389 30.1169 35.0066 30.4499C34.903 30.7115 34.8209 30.9801 34.7593 31.254C34.7293 31.3881 34.6932 31.5223 34.6901 31.6795L34.6901 31.6793Z" fill="#505050"/>
</svg>
